<?xml version="1.0" standalone="no"?><svg xmlns="http://www.w3.org/2000/svg" viewBox="0 0 1440 320"><path fill="#E1E5F2" fill-opacity="1" d="M0,64L18.5,96C36.9,128,74,192,111,192C147.7,192,185,128,222,96C258.5,64,295,64,332,69.3C369.2,75,406,85,443,106.7C480,128,517,160,554,192C590.8,224,628,256,665,250.7C701.5,245,738,203,775,165.3C812.3,128,849,96,886,96C923.1,96,960,128,997,154.7C1033.8,181,1071,203,1108,186.7C1144.6,171,1182,117,1218,122.7C1255.4,128,1292,192,1329,208C1366.2,224,1403,192,1422,176L1440,160L1440,0L1421.5,0C1403.1,0,1366,0,1329,0C1292.3,0,1255,0,1218,0C1181.5,0,1145,0,1108,0C1070.8,0,1034,0,997,0C960,0,923,0,886,0C849.2,0,812,0,775,0C738.5,0,702,0,665,0C627.7,0,591,0,554,0C516.9,0,480,0,443,0C406.2,0,369,0,332,0C295.4,0,258,0,222,0C184.6,0,148,0,111,0C73.8,0,37,0,18,0L0,0Z"></path></svg>